# xmcd
#
# Track frame offsets:
# 150
# 11259
# 23319
# 37338
# 51654
# 68391
# 80241
# 93841
# 107530
# 120008
# 135587
# 151271
# 168600
# 187482
#
# Disc length: 2706 seconds
#
#
# Revision: 0
# Processed by: cddbd v1.5.2PL0 Copyright (c) Steve Scherf et al.
# Submitted via: FreeRIP 2.96 
#
DISCID=ad0a900e
DTITLE=Vinicius and Santiago - Vinicius and Santiago
DYEAR=2010
DGENRE=Sertanejo
TTITLE0=Me Leva Junto Com Você
TTITLE1=Foi Derrepente
TTITLE2=Menina Linda
TTITLE3=Ponto de Interrogação
TTITLE4=Agente Pode Se Encontrar
TTITLE5=Zona Rural
TTITLE6=Amor Vira Lata
TTITLE7=Jogo De Amor
TTITLE8=Ponto De Bala
TTITLE9=Quem Ama Uma Vez
TTITLE10=Minha Doce Paixão
TTITLE11=Parede Azuis
TTITLE12=Putt-Porri Modão
TTITLE13=Minha Namorada
EXTD=Ano 2010 - M.P.A.
EXTT0=
EXTT1=
EXTT2=
EXTT3=
EXTT4=
EXTT5=
EXTT6=
EXTT7=
EXTT8=
EXTT9=
EXTT10=
EXTT11=
EXTT12=
EXTT13=
PLAYORDER=
